<svg xmlns="http://www.w3.org/2000/svg" viewBox="0 0 256 256" enable-background="new 0 0 256 256"><style type="text/css">.st0{fill:#4F9AD4;}</style><path class="st0" d="M44.6 110.7s-1.8-4.2-1.8-9.4 1.8-9.4 1.8-9.4c-.3 0-35.5 9.4-35.5 9.4s35.2 9.4 35.5 9.4zM211.4 91.9s1.8 4.2 1.8 9.4-1.8 9.4-1.8 9.4c.3 0 35.5-9.4 35.5-9.4s-35.2-9.4-35.5-9.4z"/><circle class="st0" cx="91.5" cy="100.8" r="10.6"/><path class="st0" d="M193 87.6c1.4 0 2.5 1.1 2.5 2.5v22.4c0 1.4-1.1 2.5-2.5 2.5h-130c-1.4 0-2.5-1.1-2.5-2.5v-22.4c0-1.4 1.1-2.5 2.5-2.5h130m0-12.7h-130c-8.4 0-15.2 6.8-15.2 15.2v22.4c0 8.4 6.8 15.2 15.2 15.2h130c8.4 0 15.2-6.8 15.2-15.2v-22.4c.1-8.4-6.8-15.2-15.2-15.2zM127.1 166.1c-19.3 0-35.5 29.1-35.5 63.5 0 3.9.2 7.8.6 11.5 9.9 3.1 21.9 5 34.9 5s25-1.9 34.9-5c.4-3.7.6-7.6.6-11.5 0-34.4-16.3-63.5-35.5-63.5zm-21.5 62c0 2.3-1.9 4.2-4.2 4.2-2.3 0-4.2-1.9-4.2-4.2v-14.6c0-2.3 1.9-4.2 4.2-4.2 2.3 0 4.2 1.9 4.2 4.2v14.6zm16.9 0c0 2.3-1.9 4.2-4.2 4.2-2.3 0-4.2-1.9-4.2-4.2v-14.6c0-2.3 1.9-4.2 4.2-4.2 2.3 0 4.2 1.9 4.2 4.2v14.6zm16.9 0c0 2.3-1.9 4.2-4.2 4.2-2.3 0-4.2-1.9-4.2-4.2v-14.6c0-2.3 1.9-4.2 4.2-4.2 2.3 0 4.2 1.9 4.2 4.2v14.6zm16.9 0c0 2.3-1.9 4.2-4.2 4.2-2.3 0-4.2-1.9-4.2-4.2v-14.6c0-2.3 1.9-4.2 4.2-4.2 2.3 0 4.2 1.9 4.2 4.2v14.6zM66.5 116.9v10.9h87.8c1.6 0 3 1.3 3 3 0 1.6-1.3 3-3 3h-87.8v85.4c0 7.3 6.5 13.9 16.9 18.7-.2-2.7-.3-5.4-.3-8.2 0-40.3 19.3-71.9 43.9-71.9 24.6 0 43.9 31.6 43.9 71.9 0 2.8-.1 5.5-.3 8.2 10.5-4.9 16.9-11.4 16.9-18.7v-102.3h-121zM127.1 61.9c-2.1 0-3.8-1.7-3.8-3.8 0-2.1 1.7-3.8 3.8-3.8h60.1c-.7-2.1-1.5-4.2-2.4-6.2h-35.7c-3.5 0-6.4-2.9-6.4-6.4s2.9-6.4 6.4-6.4h28.4c-11.6-15.6-29.8-25.4-50.4-25.4-32.2 0-58.8 24.1-62.8 56.9h125.7c-.2-1.6-.5-3.3-.8-4.9h-62.1zm4.4-26.9c3.7 0 6.7 3 6.7 6.7s-3 6.7-6.7 6.7-6.7-3-6.7-6.7 3-6.7 6.7-6.7z"/></svg>