<?xml version="1.0" encoding="utf-8"?>
<!-- Generator: Adobe Illustrator 18.1.1, SVG Export Plug-In . SVG Version: 6.00 Build 0)  -->
<svg version="1.1" id="Layer_1" xmlns="http://www.w3.org/2000/svg" xmlns:xlink="http://www.w3.org/1999/xlink" x="0px" y="0px"
	 viewBox="0 0 106.7 106.7" style="enable-background:new 0 0 106.7 106.7;" xml:space="preserve">
<style type="text/css">
	.st0{fill:#4F9AD4;}
</style>
<path class="st0" d="M18.1,46.2c0,0-0.7-1.7-0.7-3.9s0.7-3.9,0.7-3.9l0,0l0,0h0c-0.1,0-14.6,3.9-14.6,3.9S18,46.2,18.1,46.2
	L18.1,46.2z"/>
<path class="st0" d="M86.9,38.5c0,0,0.7,1.7,0.7,3.9s-0.7,3.9-0.7,3.9l0,0l0,0h0c0.1,0,14.6-3.9,14.6-3.9S87,38.5,86.9,38.5
	L86.9,38.5z"/>
<circle class="st0" cx="37.5" cy="42.1" r="4.4"/>
<path class="st0" d="M79.3,36.7c0.6,0,1,0.5,1,1V47c0,0.6-0.5,1-1,1H25.7c-0.6,0-1-0.5-1-1v-9.2c0-0.6,0.5-1,1-1H79.3 M79.3,31.4
	H25.7c-3.5,0-6.3,2.8-6.3,6.3V47c0,3.5,2.8,6.3,6.3,6.3h53.6c3.5,0,6.3-2.8,6.3-6.3v-9.2C85.6,34.3,82.8,31.4,79.3,31.4L79.3,31.4z"
	/>
<path class="st0" d="M52.1,69c-7.9,0-14.6,12-14.6,26.2c0,1.6,0.1,3.2,0.3,4.7c4.1,1.3,9,2,14.4,2s10.3-0.8,14.4-2
	c0.2-1.5,0.3-3.1,0.3-4.7C66.8,81,60,69,52.1,69z M43.3,94.6c0,1-0.8,1.7-1.7,1.7c-1,0-1.7-0.8-1.7-1.7v-6c0-1,0.8-1.7,1.7-1.7
	c1,0,1.7,0.8,1.7,1.7V94.6z M50.2,94.6c0,1-0.8,1.7-1.7,1.7c-1,0-1.7-0.8-1.7-1.7v-6c0-1,0.8-1.7,1.7-1.7c1,0,1.7,0.8,1.7,1.7V94.6z
	 M57.2,94.6c0,1-0.8,1.7-1.7,1.7c-1,0-1.7-0.8-1.7-1.7v-6c0-1,0.8-1.7,1.7-1.7c1,0,1.7,0.8,1.7,1.7V94.6z M64.1,94.6
	c0,1-0.8,1.7-1.7,1.7c-1,0-1.7-0.8-1.7-1.7v-6c0-1,0.8-1.7,1.7-1.7c1,0,1.7,0.8,1.7,1.7V94.6z"/>
<path class="st0" d="M27.2,48.7v4.5h36.2c0.7,0,1.2,0.5,1.2,1.2c0,0.7-0.5,1.2-1.2,1.2H27.2v35.2c0,3,2.7,5.7,7,7.7
	c-0.1-1.1-0.1-2.2-0.1-3.4c0-16.6,8-29.6,18.1-29.6c10.2,0,18.1,13,18.1,29.6c0,1.1,0,2.3-0.1,3.4c4.3-2,7-4.7,7-7.7V48.7H27.2z"/>
<path class="st0" d="M52.1,26.1c-0.9,0-1.6-0.7-1.6-1.6s0.7-1.6,1.6-1.6h24.7c-0.3-0.9-0.6-1.7-1-2.6H61.2c-1.5,0-2.6-1.2-2.6-2.6
	s1.2-2.6,2.6-2.6h11.7C68.1,8.7,60.6,4.7,52.1,4.7c-13.3,0-24.2,9.9-25.9,23.4H78c-0.1-0.7-0.2-1.3-0.3-2L52.1,26.1L52.1,26.1z
	 M53.9,15c1.5,0,2.7,1.2,2.7,2.7c0,1.5-1.2,2.7-2.7,2.7c-1.5,0-2.7-1.2-2.7-2.7C51.2,16.2,52.4,15,53.9,15z"/>
<g>
</g>
<g>
</g>
<g>
</g>
<g>
</g>
<g>
</g>
<g>
</g>
</svg>
