<?xml version="1.0" encoding="utf-8"?>
<!-- Generator: Adobe Illustrator 18.1.1, SVG Export Plug-In . SVG Version: 6.00 Build 0)  -->
<svg version="1.1" id="Layer_1" xmlns="http://www.w3.org/2000/svg" xmlns:xlink="http://www.w3.org/1999/xlink" x="0px" y="0px"
	 viewBox="0 0 286.9 308.4" style="enable-background:new 0 0 286.9 308.4;" xml:space="preserve">
<style type="text/css">
	.st0{fill:#FFFFFF;}
</style>
<g>
	<circle class="st0" cx="161.1" cy="76.3" r="3.3"/>
	<circle class="st0" cx="129.9" cy="76.3" r="3.3"/>
	<circle class="st0" cx="161.1" cy="105.2" r="3.3"/>
	<circle class="st0" cx="129.9" cy="105.2" r="3.3"/>
	<path class="st0" d="M161.1,65.1h-31.2c-6.2,0-11.1,5-11.1,11.1v29c0,6.2,5,11.1,11.1,11.1h0.4h30.5c6.2,0,11.5-5,11.5-11.1v-29
		C172.3,70.1,167.3,65.1,161.1,65.1z M161.1,69.6c3.7,0,6.7,3,6.7,6.7s-3,6.7-6.7,6.7c-3.7,0-6.7-3-6.7-6.7S157.4,69.6,161.1,69.6z
		 M129.9,69.6c3.7,0,6.7,3,6.7,6.7s-3,6.7-6.7,6.7c-3.7,0-6.7-3-6.7-6.7S126.2,69.6,129.9,69.6z M129.9,111.9c-3.7,0-6.7-3-6.7-6.7
		s3-6.7,6.7-6.7c3.7,0,6.7,3,6.7,6.7S133.6,111.9,129.9,111.9z M161.1,111.9c-3.7,0-6.7-3-6.7-6.7s3-6.7,6.7-6.7
		c3.7,0,6.7,3,6.7,6.7S164.8,111.9,161.1,111.9z"/>
	<path class="st0" d="M107.6,241.2c0,3.7,3,6.7,6.7,6.7s6.7-3,6.7-6.7v-33.4h-13.4V241.2z"/>
	<path class="st0" d="M170,241.2c0,3.7,3,6.7,6.7,6.7c3.7,0,6.7-3,6.7-6.7v-33.4H170V241.2z"/>
	<path class="st0" d="M128.4,241.2c0,3.7,3,6.7,6.7,6.7s6.7-3,6.7-6.7v-33.4h-13.4V241.2z"/>
	<path class="st0" d="M149.2,241.2c0,3.7,3,6.7,6.7,6.7s6.7-3,6.7-6.7v-33.4h-13.4V241.2z"/>
	<path class="st0" d="M83.1,178.8v24.5l6.7-6.7l6.7,6.7v-24.5c0-3.7,3-6.7,6.7-6.7v-13.4C92.1,158.7,83.1,167.7,83.1,178.8z"/>
	<path class="st0" d="M107.6,203.3v-75.8c0-2.5,2-4.5,4.5-4.5H179c2.5,0,4.5,2,4.5,4.5v75.8H107.6z M127.7,139.8
		c0-1.8-1.5-3.3-3.3-3.3c-1.8,0-3.3,1.5-3.3,3.3v29c0,1.8,1.5,3.3,3.3,3.3c1.8,0,3.3-1.5,3.3-3.3V139.8z M141.8,139.8
		c0-1.8-1.5-3.3-3.3-3.3s-3.3,1.5-3.3,3.3v29c0,1.8,1.5,3.3,3.3,3.3s3.3-1.5,3.3-3.3V139.8z M155.9,139.8c0-1.8-1.5-3.3-3.3-3.3
		c-1.8,0-3.3,1.5-3.3,3.3v29c0,1.8,1.5,3.3,3.3,3.3c1.8,0,3.3-1.5,3.3-3.3V139.8z M170,139.8c0-1.8-1.5-3.3-3.3-3.3
		s-3.3,1.5-3.3,3.3v29c0,1.8,1.5,3.3,3.3,3.3s3.3-1.5,3.3-3.3V139.8z"/>
	<path class="st0" d="M103.2,136.4v13.4c-16,0-29,13-29,29v15.6l-6.7-6.7l-6.7,6.7v-15.6C60.8,155.4,79.8,136.4,103.2,136.4z"/>
	<path class="st0" d="M207.9,178.8v24.5l-6.7-6.7l-6.7,6.7v-24.5c0-3.7-3-6.7-6.7-6.7v-13.4C198.9,158.7,207.9,167.7,207.9,178.8z"
		/>
	<path class="st0" d="M187.9,136.4v13.4c16,0,29,13,29,29v15.6l6.7-6.7l6.7,6.7v-15.6C230.2,155.4,211.2,136.4,187.9,136.4z"/>
</g>
<g>
</g>
<g>
</g>
<g>
</g>
<g>
</g>
<g>
</g>
<g>
</g>
</svg>
